<?xml version="1.0" encoding="UTF-8"?> <svg xmlns="http://www.w3.org/2000/svg" width="590" height="145" viewBox="0 0 590 145" fill="none"><g clip-path="url(#clip0_17_1683)"><path d="M61.0734 44.1505C67.3948 49.0897 71.5754 55.8157 73.6151 64.3285H57.4828C55.814 60.1817 53.218 56.9114 49.678 54.5177C46.1549 52.1239 41.9237 50.9271 36.9677 50.9271C32.8883 50.9271 29.2303 51.9385 25.96 53.9782C22.6897 56.0179 20.1443 58.9174 18.3237 62.7102C16.5031 66.4862 15.5929 70.9197 15.5929 76.0105C15.5929 81.1014 16.5031 85.4336 18.3237 89.2096C20.1443 92.9856 22.6897 95.9019 25.96 97.9416C29.2303 99.9814 32.9051 100.993 36.9677 100.993C41.9069 100.993 46.138 99.7959 49.678 97.4022C53.2011 95.0085 55.7971 91.7382 57.4828 87.5914H73.6151C71.5754 96.1042 67.3948 102.83 61.0734 107.769C54.752 112.709 46.7954 115.187 37.1869 115.187C29.8371 115.187 23.3471 113.535 17.7169 110.231C12.0866 106.927 7.72057 102.291 4.63571 96.3234C1.55086 90.3559 0 83.5962 0 76.0442C0 68.4922 1.55086 61.6145 4.63571 55.6471C7.72057 49.6797 12.0697 45.0608 17.6663 41.7399C23.2629 38.4359 29.7697 36.7839 37.1869 36.7839C46.7786 36.7839 54.752 39.2619 61.0734 44.2011V44.1505Z" fill="black"></path><path d="M128.94 57.0028C133.627 59.4808 137.318 63.0545 140.015 67.7408C142.713 72.427 144.044 77.9393 144.044 84.2608C144.044 90.5822 142.696 96.0776 140.015 100.73C137.318 105.383 133.643 108.956 128.94 111.468C124.254 113.98 118.961 115.227 113.078 115.227C107.195 115.227 101.901 113.98 97.2151 111.468C92.5289 108.956 88.8371 105.383 86.14 100.73C83.4429 96.0776 82.1111 90.5822 82.1111 84.2608C82.1111 77.9393 83.4597 72.427 86.14 67.7408C88.8371 63.0545 92.512 59.4639 97.2151 57.0028C101.901 54.5248 107.195 53.2942 113.078 53.2942C118.961 53.2942 124.254 54.5248 128.94 57.0028ZM102.171 71.129C99.1874 74.1465 97.704 78.5293 97.704 84.2776C97.704 90.0259 99.1874 94.4088 102.171 97.4262C105.155 100.444 108.779 101.944 113.078 101.944C117.376 101.944 121.001 100.444 123.984 97.4262C126.968 94.4088 128.451 90.0259 128.451 84.2776C128.451 78.5293 126.968 74.1633 123.984 71.129C121.001 68.1116 117.376 66.6113 113.078 66.6113C108.779 66.6113 105.155 68.1285 102.171 71.129Z" fill="black"></path><path d="M191.699 56.8979C195.341 59.2917 197.92 62.5282 199.437 66.6077V54.0659H214.709V114.701C214.709 120.298 213.597 125.338 211.389 129.805C209.163 134.272 205.859 137.779 201.46 140.324C197.06 142.869 191.733 144.134 185.479 144.134C176.747 144.134 169.701 142.06 164.323 137.913C158.946 133.767 155.676 128.136 154.513 121.006H169.667C170.544 124.057 172.229 126.434 174.741 128.153C177.253 129.856 180.473 130.715 184.4 130.715C188.901 130.715 192.542 129.384 195.307 126.737C198.071 124.091 199.454 120.062 199.454 114.684V101.822C197.92 105.902 195.341 109.155 191.716 111.583C188.075 114.027 183.726 115.241 178.635 115.241C173.544 115.241 168.959 114.01 164.897 111.532C160.817 109.054 157.648 105.48 155.355 100.794C153.063 96.1077 151.917 90.5954 151.917 84.2739C151.917 77.9525 153.063 72.4402 155.355 67.7539C157.648 63.0677 160.817 59.4771 164.897 57.0159C168.959 54.5379 173.544 53.3074 178.635 53.3074C183.726 53.3074 188.092 54.5042 191.716 56.8979H191.699ZM171.859 71.3951C168.942 74.5137 167.493 78.8122 167.493 84.2571C167.493 89.7019 168.942 93.9837 171.859 97.0685C174.758 100.153 178.618 101.704 183.423 101.704C188.227 101.704 191.902 100.12 194.919 96.9674C197.937 93.7982 199.437 89.5671 199.437 84.2571C199.437 78.9471 197.92 74.5979 194.919 71.4457C191.902 68.2765 188.058 66.7088 183.423 66.7088C178.787 66.7088 174.775 68.2765 171.859 71.3951Z" fill="black"></path><path d="M281.346 60.0679C285.493 64.653 287.566 71.0756 287.566 79.3693V114.483H272.293V81.1056C272.293 76.3013 271.063 72.5759 268.585 69.9293C266.107 67.2828 262.735 65.951 258.437 65.951C254.138 65.951 250.581 67.367 247.969 70.199C245.356 73.031 244.041 77.1105 244.041 82.4205V114.483H228.667V54.0668H244.041V66.1702C245.642 62.1076 248.272 58.9216 251.947 56.629C255.622 54.3365 259.853 53.1902 264.657 53.1902C271.636 53.1902 277.199 55.4828 281.346 60.0679V60.0679Z" fill="black"></path><path d="M316.459 54.0625V114.479H301.085V54.0625H316.459Z" fill="black"></path><path d="M367.115 56.9002C370.705 59.2939 373.318 62.5305 374.92 66.6099V33.7891H390.192V114.484H374.92V101.841C373.318 105.921 370.722 109.174 367.115 111.602C363.524 114.046 359.175 115.26 354.084 115.26C348.993 115.26 344.408 114.029 340.346 111.551C336.266 109.073 333.097 105.499 330.805 100.813C328.512 96.1268 327.366 90.6145 327.366 84.2931C327.366 77.9716 328.512 72.4593 330.805 67.7731C333.097 63.0868 336.266 59.4962 340.346 57.0351C344.408 54.5571 348.993 53.3265 354.084 53.3265C359.175 53.3265 363.524 54.5233 367.115 56.9171V56.9002ZM347.325 71.3973C344.408 74.5159 342.959 78.8145 342.959 84.2593C342.959 89.7042 344.408 93.9859 347.325 97.0708C350.224 100.156 354.084 101.706 358.889 101.706C363.693 101.706 367.368 100.122 370.385 96.9696C373.403 93.8005 374.903 89.5693 374.903 84.2593C374.903 78.9493 373.386 74.6002 370.385 71.4479C367.368 68.2788 363.524 66.7111 358.889 66.7111C354.253 66.7111 350.241 68.2788 347.325 71.3973Z" fill="black"></path><path d="M440.882 56.8943C444.523 59.288 447.102 62.5246 448.619 66.604V54.0623H463.892V114.478H448.619V101.835C447.085 105.915 444.506 109.168 440.882 111.596C437.241 114.04 432.891 115.254 427.801 115.254C422.71 115.254 418.125 114.023 414.062 111.545C409.983 109.067 406.813 105.493 404.521 100.807C402.228 96.1208 401.082 90.6086 401.082 84.2871C401.082 77.9657 402.228 72.4534 404.521 67.7671C406.813 63.0808 409.983 59.4903 414.062 57.0291C418.125 54.5511 422.71 53.3206 427.801 53.3206C432.891 53.3206 437.257 54.5174 440.882 56.9111V56.8943ZM421.041 71.3914C418.125 74.51 416.675 78.8086 416.675 84.2534C416.675 89.6983 418.125 93.98 421.041 97.0648C423.94 100.15 427.801 101.701 432.605 101.701C437.409 101.701 441.084 100.116 444.101 96.9637C447.119 93.7946 448.619 89.5634 448.619 84.2534C448.619 78.9434 447.102 74.5943 444.101 71.442C441.084 68.2728 437.241 66.7051 432.605 66.7051C427.969 66.7051 423.957 68.2728 421.041 71.3914V71.3914Z" fill="black"></path><path d="M490.61 106.458C490.61 110.891 487.02 114.465 482.603 114.465H482.064C477.63 114.465 474.057 110.874 474.057 106.458C474.057 102.024 477.647 98.4504 482.064 98.4504H482.603C487.037 98.4504 490.61 102.041 490.61 106.458V106.458Z" fill="#0048E7"></path><path d="M537.608 56.8943C541.249 59.288 543.828 62.5246 545.345 66.604V54.0623H560.618V114.478H545.345V101.835C543.811 105.915 541.232 109.168 537.608 111.596C533.967 114.04 529.618 115.254 524.527 115.254C519.436 115.254 514.851 114.023 510.788 111.545C506.709 109.067 503.54 105.493 501.247 100.807C498.955 96.1208 497.808 90.6086 497.808 84.2871C497.808 77.9657 498.955 72.4534 501.247 67.7671C503.54 63.0808 506.709 59.4903 510.788 57.0291C514.851 54.5511 519.436 53.3206 524.527 53.3206C529.618 53.3206 533.984 54.5174 537.608 56.9111V56.8943ZM517.767 71.3914C514.851 74.51 513.401 78.8086 513.401 84.2534C513.401 89.6983 514.851 93.98 517.767 97.0648C520.667 100.15 524.527 101.701 529.331 101.701C534.135 101.701 537.81 100.116 540.828 96.9637C543.845 93.7946 545.345 89.5634 545.345 84.2534C545.345 78.9434 543.828 74.5943 540.828 71.442C537.81 68.2728 533.967 66.7051 529.331 66.7051C524.695 66.7051 520.683 68.2728 517.767 71.3914Z" fill="#0048E7"></path><path d="M589.949 54.0625V114.479H574.576V54.0625H589.949Z" fill="#0048E7"></path><path d="M312.279 0H306.244V21.4423H312.279V0Z" fill="black"></path><path d="M284.199 9.00102L279.931 13.2683L295.093 28.4303L299.361 24.163L284.199 9.00102Z" fill="black"></path><path d="M292.134 35.2083H270.692V41.2431H292.134V35.2083Z" fill="black"></path><path d="M334.205 8.97888L319.043 24.1409L323.311 28.4082L338.473 13.2462L334.205 8.97888Z" fill="black"></path><path d="M347.712 35.2083H326.27V41.2431H347.712V35.2083Z" fill="black"></path><path d="M308.772 44.3574C313.018 44.3574 316.459 40.9158 316.459 36.6705C316.459 32.4252 313.018 28.9836 308.772 28.9836C304.527 28.9836 301.085 32.4252 301.085 36.6705C301.085 40.9158 304.527 44.3574 308.772 44.3574Z" fill="black"></path><path d="M582.313 44.3574C586.559 44.3574 590 40.9158 590 36.6705C590 32.4252 586.559 28.9836 582.313 28.9836C578.068 28.9836 574.626 32.4252 574.626 36.6705C574.626 40.9158 578.068 44.3574 582.313 44.3574Z" fill="#0048E7"></path></g><defs><clipPath id="clip0_17_1683"><rect width="590" height="144.129" fill="white"></rect></clipPath></defs></svg> 